<svg xmlns="http://www.w3.org/2000/svg" width="420mm" height="297mm" viewBox="0 0 1200 848"><rect width="1200" height="848" fill="#f5f3eb"/><g font-family="Noto Sans CJK TC,Microsoft JhengHei,sans-serif"><text x="45" y="48" font-size="25" text-anchor="start" fill="#263e40">彼岸 水霧居</text><text x="45" y="74" font-size="11" text-anchor="start" fill="#263e40">HIGAN WATER HOUSE / CONCEPT DESIGN</text><text x="1155" y="47" font-size="21" text-anchor="end" fill="#263e40">A-02   建築立面</text><line x1="45" y1="94" x2="1155" y2="94" stroke="#263e40" stroke-width="1.5" stroke-dasharray=""/><text x="85" y="135" font-size="19" text-anchor="start" fill="#263e40">南向正立面（朝水岸）</text><line x1="60" y1="502.6" x2="615" y2="502.6" stroke="#263e40" stroke-width="1" stroke-dasharray=""/><rect x="88" y="459.1" width="464" height="43.5" fill="#b8bcaf" stroke="#263e40" stroke-width="1.5"/><rect x="88" y="293.8" width="464" height="165.3" fill="#e6dfcb" stroke="#263e40" stroke-width="1.5"/><rect x="89.80000000000001" y="293.8" width="8" height="176.89999999999998" fill="#69513c" stroke="#263e40" stroke-width="1.5"/><rect x="240.6" y="293.8" width="8" height="176.89999999999998" fill="#69513c" stroke="#263e40" stroke-width="1.5"/><rect x="391.4" y="293.8" width="8" height="176.89999999999998" fill="#69513c" stroke="#263e40" stroke-width="1.5"/><rect x="542.2" y="293.8" width="8" height="176.89999999999998" fill="#69513c" stroke="#263e40" stroke-width="1.5"/><rect x="44.5" y="160.39999999999998" width="551.0" height="156.60000000000002" fill="#c2b194" stroke="#263e40" stroke-width="1.5"/><line x1="44.5" y1="317.0" x2="595.5" y2="317.0" stroke="#9f8a6c" stroke-width="0.5" stroke-dasharray=""/><line x1="44.5" y1="293.8" x2="595.5" y2="293.8" stroke="#9f8a6c" stroke-width="0.5" stroke-dasharray=""/><line x1="44.5" y1="270.6" x2="595.5" y2="270.6" stroke="#9f8a6c" stroke-width="0.5" stroke-dasharray=""/><line x1="44.5" y1="247.39999999999998" x2="595.5" y2="247.39999999999998" stroke="#9f8a6c" stroke-width="0.5" stroke-dasharray=""/><line x1="44.5" y1="224.20000000000005" x2="595.5" y2="224.20000000000005" stroke="#9f8a6c" stroke-width="0.5" stroke-dasharray=""/><line x1="44.5" y1="201.0" x2="595.5" y2="201.0" stroke="#9f8a6c" stroke-width="0.5" stroke-dasharray=""/><line x1="44.5" y1="177.79999999999995" x2="595.5" y2="177.79999999999995" stroke="#9f8a6c" stroke-width="0.5" stroke-dasharray=""/><line x1="44.5" y1="160.39999999999998" x2="595.5" y2="160.39999999999998" stroke="#9f8a6c" stroke-width="0.5" stroke-dasharray=""/><rect x="131.5" y="343.1" width="124.69999999999999" height="84.1" fill="#dae3da" stroke="#263e40" stroke-width="1.5"/><line x1="131.5" y1="427.2" x2="131.5" y2="343.1" stroke="#263e40" stroke-width="0.7" stroke-dasharray=""/><line x1="145.35555555555555" y1="427.2" x2="145.35555555555555" y2="343.1" stroke="#263e40" stroke-width="0.7" stroke-dasharray=""/><line x1="159.2111111111111" y1="427.2" x2="159.2111111111111" y2="343.1" stroke="#263e40" stroke-width="0.7" stroke-dasharray=""/><line x1="173.06666666666666" y1="427.2" x2="173.06666666666666" y2="343.1" stroke="#263e40" stroke-width="0.7" stroke-dasharray=""/><line x1="186.92222222222222" y1="427.2" x2="186.92222222222222" y2="343.1" stroke="#263e40" stroke-width="0.7" stroke-dasharray=""/><line x1="200.77777777777777" y1="427.2" x2="200.77777777777777" y2="343.1" stroke="#263e40" stroke-width="0.7" stroke-dasharray=""/><line x1="214.63333333333333" y1="427.2" x2="214.63333333333333" y2="343.1" stroke="#263e40" stroke-width="0.7" stroke-dasharray=""/><line x1="228.48888888888888" y1="427.2" x2="228.48888888888888" y2="343.1" stroke="#263e40" stroke-width="0.7" stroke-dasharray=""/><line x1="242.34444444444443" y1="427.2" x2="242.34444444444443" y2="343.1" stroke="#263e40" stroke-width="0.7" stroke-dasharray=""/><line x1="256.2" y1="427.2" x2="256.2" y2="343.1" stroke="#263e40" stroke-width="0.7" stroke-dasharray=""/><rect x="383.8" y="343.1" width="124.69999999999999" height="84.1" fill="#dae3da" stroke="#263e40" stroke-width="1.5"/><line x1="383.8" y1="427.2" x2="383.8" y2="343.1" stroke="#263e40" stroke-width="0.7" stroke-dasharray=""/><line x1="397.65555555555557" y1="427.2" x2="397.65555555555557" y2="343.1" stroke="#263e40" stroke-width="0.7" stroke-dasharray=""/><line x1="411.5111111111111" y1="427.2" x2="411.5111111111111" y2="343.1" stroke="#263e40" stroke-width="0.7" stroke-dasharray=""/><line x1="425.3666666666667" y1="427.2" x2="425.3666666666667" y2="343.1" stroke="#263e40" stroke-width="0.7" stroke-dasharray=""/><line x1="439.22222222222223" y1="427.2" x2="439.22222222222223" y2="343.1" stroke="#263e40" stroke-width="0.7" stroke-dasharray=""/><line x1="453.0777777777778" y1="427.2" x2="453.0777777777778" y2="343.1" stroke="#263e40" stroke-width="0.7" stroke-dasharray=""/><line x1="466.93333333333334" y1="427.2" x2="466.93333333333334" y2="343.1" stroke="#263e40" stroke-width="0.7" stroke-dasharray=""/><line x1="480.7888888888889" y1="427.2" x2="480.7888888888889" y2="343.1" stroke="#263e40" stroke-width="0.7" stroke-dasharray=""/><line x1="494.64444444444445" y1="427.2" x2="494.64444444444445" y2="343.1" stroke="#263e40" stroke-width="0.7" stroke-dasharray=""/><line x1="508.5" y1="427.2" x2="508.5" y2="343.1" stroke="#263e40" stroke-width="0.7" stroke-dasharray=""/><rect x="282.3" y="334.4" width="75.4" height="124.69999999999999" fill="#a79980" stroke="#263e40" stroke-width="1.5"/><rect x="73.5" y="328.6" width="493.0" height="6.38" fill="#827053" stroke="#263e40" stroke-width="1.5"/><line x1="93.80000000000001" y1="459.1" x2="93.80000000000001" y2="328.6" stroke="#69513c" stroke-width="5" stroke-dasharray=""/><line x1="244.6" y1="459.1" x2="244.6" y2="328.6" stroke="#69513c" stroke-width="5" stroke-dasharray=""/><line x1="395.4" y1="459.1" x2="395.4" y2="328.6" stroke="#69513c" stroke-width="5" stroke-dasharray=""/><line x1="546.2" y1="459.1" x2="546.2" y2="328.6" stroke="#69513c" stroke-width="5" stroke-dasharray=""/><line x1="88" y1="395.3" x2="262" y2="395.3" stroke="#263e40" stroke-width="3" stroke-dasharray=""/><line x1="378" y1="395.3" x2="552" y2="395.3" stroke="#263e40" stroke-width="3" stroke-dasharray=""/><rect x="276.5" y="493.9" width="87.0" height="8.7" fill="#bfc2b4" stroke="#263e40" stroke-width="1.5"/><rect x="276.5" y="485.2" width="87.0" height="8.7" fill="#bfc2b4" stroke="#263e40" stroke-width="1.5"/><rect x="276.5" y="476.5" width="87.0" height="8.7" fill="#bfc2b4" stroke="#263e40" stroke-width="1.5"/><rect x="276.5" y="467.8" width="87.0" height="8.7" fill="#bfc2b4" stroke="#263e40" stroke-width="1.5"/><rect x="276.5" y="459.1" width="87.0" height="8.7" fill="#bfc2b4" stroke="#263e40" stroke-width="1.5"/><line x1="88" y1="552" x2="552" y2="552" stroke="#994b3c" stroke-width="0.8" stroke-dasharray=""/><line x1="88" y1="546" x2="88" y2="558" stroke="#994b3c" stroke-width="1" stroke-dasharray=""/><line x1="552" y1="546" x2="552" y2="558" stroke="#994b3c" stroke-width="1" stroke-dasharray=""/><text x="320.0" y="543" font-size="14" text-anchor="middle" fill="#994b3c">8.00 主屋</text><text x="84" y="603" font-size="13" text-anchor="start" fill="#263e40">簷下柱、屋架、基礎對位；屋面外觀材料待防火與重量評估。</text><text x="720" y="135" font-size="19" text-anchor="start" fill="#263e40">東向側立面</text><line x1="680" y1="507.1" x2="1135" y2="507.1" stroke="#263e40" stroke-width="1" stroke-dasharray=""/><rect x="701" y="474.85" width="258" height="32.25" fill="#b8bcaf" stroke="#263e40" stroke-width="1.5"/><rect x="701" y="352.3" width="258" height="122.55" fill="#e6dfcb" stroke="#263e40" stroke-width="1.5"/><polygon points="666.6,369.5 830,253.39999999999998 993.4,369.5" fill="#c2b194" stroke="#263e40"/><rect x="804.2" y="386.7" width="94.60000000000001" height="62.35" fill="#d7e1d8" stroke="#263e40" stroke-width="1.5"/><line x1="954.7" y1="359.61" x2="1025.65" y2="381.97" stroke="#827053" stroke-width="5" stroke-dasharray=""/><line x1="1010.6" y1="507.1" x2="1010.6" y2="378.1" stroke="#69513c" stroke-width="5" stroke-dasharray=""/><line x1="959" y1="474.85" x2="1019.2" y2="474.85" stroke="#263e40" stroke-width="5" stroke-dasharray=""/><line x1="1080" y1="507.1" x2="1130" y2="507.1" stroke="#994b3c" stroke-width="0.7" stroke-dasharray=""/><text x="1140" y="500.1" font-size="11" text-anchor="end" fill="#994b3c">+0.30 地坪</text><line x1="1080" y1="474.85" x2="1130" y2="474.85" stroke="#994b3c" stroke-width="0.7" stroke-dasharray=""/><text x="1140" y="467.85" font-size="11" text-anchor="end" fill="#994b3c">+1.05 樓地板</text><line x1="1080" y1="352.3" x2="1130" y2="352.3" stroke="#994b3c" stroke-width="0.7" stroke-dasharray=""/><text x="1140" y="345.3" font-size="11" text-anchor="end" fill="#994b3c">+3.90 簷口</text><line x1="1080" y1="253.39999999999998" x2="1130" y2="253.39999999999998" stroke="#994b3c" stroke-width="0.7" stroke-dasharray=""/><text x="1140" y="246.39999999999998" font-size="11" text-anchor="end" fill="#994b3c">+6.20 屋脊</text><line x1="701" y1="552" x2="959" y2="552" stroke="#994b3c" stroke-width="0.8" stroke-dasharray=""/><line x1="701" y1="546" x2="701" y2="558" stroke="#994b3c" stroke-width="1" stroke-dasharray=""/><line x1="959" y1="546" x2="959" y2="558" stroke="#994b3c" stroke-width="1" stroke-dasharray=""/><text x="830.0" y="543" font-size="14" text-anchor="middle" fill="#994b3c">6.00</text><text x="720" y="603" font-size="13" text-anchor="start" fill="#263e40">標高為相對模型基準，非基地測量標高。</text><text x="85" y="685" font-size="14" text-anchor="start" fill="#263e40">材料意向：深色木構／土色壁面／茅草造型屋頂／石材基座。</text><text x="85" y="715" font-size="14" text-anchor="start" fill="#263e40">施工前須核定屋頂防火、屋面自重、牆體系統及所有接頭；本圖不給出施工配筋或結構合格結論。</text><line x1="45" y1="790" x2="1155" y2="790" stroke="#263e40" stroke-width="1.5" stroke-dasharray=""/><text x="45" y="817" font-size="13" text-anchor="start" fill="#263e40">REV.02 · 2026.09 · 單位 m · 依標註尺寸；示意非施工圖</text><text x="1155" y="817" font-size="13" text-anchor="end" fill="#994b3c">未完成結構／地質／洪水及機電驗證</text></g></svg>