0
SECTION
2
HEADER
9
$ACADVER
1
AC1009
0
ENDSEC
0
SECTION
2
ENTITIES
0
LINE
8
WALL
10
-4
20
-3
30
0
11
-3.25
21
-3
31
0
0
LINE
8
WALL
10
-1.1
20
-3
30
0
11
-0.65
21
-3
31
0
0
LINE
8
WALL
10
0.65
20
-3
30
0
11
1.1
21
-3
31
0
0
LINE
8
WALL
10
3.25
20
-3
30
0
11
4
21
-3
31
0
0
LINE
8
WALL
10
-4
20
3
30
0
11
-2.8
21
3
31
0
0
LINE
8
WALL
10
-1.3
20
3
30
0
11
0.7
21
3
31
0
0
LINE
8
WALL
10
1.6
20
3
30
0
11
4
21
3
31
0
0
LINE
8
WALL
10
-4
20
3
30
0
11
-4
21
0.6
31
0
0
LINE
8
WALL
10
-4
20
-1.6
30
0
11
-4
21
-3
31
0
0
LINE
8
WALL
10
4
20
3
30
0
11
4
21
0.6
31
0
0
LINE
8
WALL
10
4
20
-1.6
30
0
11
4
21
-3
31
0
0
LINE
8
PARTITION
10
-4
20
0
30
0
11
-1.45
21
0
31
0
0
LINE
8
PARTITION
10
-0.45
20
0
30
0
11
0.6
21
0
31
0
0
LINE
8
PARTITION
10
1.5
20
0
30
0
11
2.75
21
0
31
0
0
LINE
8
PARTITION
10
3.65
20
0
30
0
11
4
21
0
31
0
0
LINE
8
PARTITION
10
0
20
0
30
0
11
0
21
3
31
0
0
LINE
8
PARTITION
10
2.2
20
0
30
0
11
2.2
21
3
31
0
0
LINE
8
PORCH
10
-4
20
-4.4
30
0
11
4
21
-4.4
31
0
0
LINE
8
PORCH
10
4
20
-4.4
30
0
11
4
21
-3.0000000000000004
31
0
0
LINE
8
PORCH
10
4
20
-3.0000000000000004
30
0
11
-4
21
-3.0000000000000004
31
0
0
LINE
8
PORCH
10
-4
20
-3.0000000000000004
30
0
11
-4
21
-4.4
31
0
0
LINE
8
FURNITURE
10
-3.35
20
0.555
30
0
11
-1.55
21
0.555
31
0
0
LINE
8
FURNITURE
10
-1.55
20
0.555
30
0
11
-1.55
21
2.705
31
0
0
LINE
8
FURNITURE
10
-1.55
20
2.705
30
0
11
-3.35
21
2.705
31
0
0
LINE
8
FURNITURE
10
-3.35
20
2.705
30
0
11
-3.35
21
0.555
31
0
0
LINE
8
FURNITURE
10
3.115
20
-2.33
30
0
11
3.845
21
-2.33
31
0
0
LINE
8
FURNITURE
10
3.845
20
-2.33
30
0
11
3.845
21
-0.43000000000000016
31
0
0
LINE
8
FURNITURE
10
3.845
20
-0.43000000000000016
30
0
11
3.115
21
-0.43000000000000016
31
0
0
LINE
8
FURNITURE
10
3.115
20
-0.43000000000000016
30
0
11
3.115
21
-2.33
31
0
0
LINE
8
COLUMN
10
-3.9899999999999998
20
2.81
30
0
11
-3.8099999999999996
21
2.81
31
0
0
LINE
8
COLUMN
10
-3.8099999999999996
20
2.81
30
0
11
-3.8099999999999996
21
2.99
31
0
0
LINE
8
COLUMN
10
-3.8099999999999996
20
2.99
30
0
11
-3.9899999999999998
21
2.99
31
0
0
LINE
8
COLUMN
10
-3.9899999999999998
20
2.99
30
0
11
-3.9899999999999998
21
2.81
31
0
0
LINE
8
COLUMN
10
-3.9899999999999998
20
-0.09
30
0
11
-3.8099999999999996
21
-0.09
31
0
0
LINE
8
COLUMN
10
-3.8099999999999996
20
-0.09
30
0
11
-3.8099999999999996
21
0.09
31
0
0
LINE
8
COLUMN
10
-3.8099999999999996
20
0.09
30
0
11
-3.9899999999999998
21
0.09
31
0
0
LINE
8
COLUMN
10
-3.9899999999999998
20
0.09
30
0
11
-3.9899999999999998
21
-0.09
31
0
0
LINE
8
COLUMN
10
-3.9899999999999998
20
-2.9899999999999998
30
0
11
-3.8099999999999996
21
-2.9899999999999998
31
0
0
LINE
8
COLUMN
10
-3.8099999999999996
20
-2.9899999999999998
30
0
11
-3.8099999999999996
21
-2.8099999999999996
31
0
0
LINE
8
COLUMN
10
-3.8099999999999996
20
-2.8099999999999996
30
0
11
-3.9899999999999998
21
-2.8099999999999996
31
0
0
LINE
8
COLUMN
10
-3.9899999999999998
20
-2.8099999999999996
30
0
11
-3.9899999999999998
21
-2.9899999999999998
31
0
0
LINE
8
COLUMN
10
-1.3900000000000001
20
2.81
30
0
11
-1.2100000000000002
21
2.81
31
0
0
LINE
8
COLUMN
10
-1.2100000000000002
20
2.81
30
0
11
-1.2100000000000002
21
2.99
31
0
0
LINE
8
COLUMN
10
-1.2100000000000002
20
2.99
30
0
11
-1.3900000000000001
21
2.99
31
0
0
LINE
8
COLUMN
10
-1.3900000000000001
20
2.99
30
0
11
-1.3900000000000001
21
2.81
31
0
0
LINE
8
COLUMN
10
-1.3900000000000001
20
-0.09
30
0
11
-1.2100000000000002
21
-0.09
31
0
0
LINE
8
COLUMN
10
-1.2100000000000002
20
-0.09
30
0
11
-1.2100000000000002
21
0.09
31
0
0
LINE
8
COLUMN
10
-1.2100000000000002
20
0.09
30
0
11
-1.3900000000000001
21
0.09
31
0
0
LINE
8
COLUMN
10
-1.3900000000000001
20
0.09
30
0
11
-1.3900000000000001
21
-0.09
31
0
0
LINE
8
COLUMN
10
-1.3900000000000001
20
-2.9899999999999998
30
0
11
-1.2100000000000002
21
-2.9899999999999998
31
0
0
LINE
8
COLUMN
10
-1.2100000000000002
20
-2.9899999999999998
30
0
11
-1.2100000000000002
21
-2.8099999999999996
31
0
0
LINE
8
COLUMN
10
-1.2100000000000002
20
-2.8099999999999996
30
0
11
-1.3900000000000001
21
-2.8099999999999996
31
0
0
LINE
8
COLUMN
10
-1.3900000000000001
20
-2.8099999999999996
30
0
11
-1.3900000000000001
21
-2.9899999999999998
31
0
0
LINE
8
COLUMN
10
1.21
20
2.81
30
0
11
1.39
21
2.81
31
0
0
LINE
8
COLUMN
10
1.39
20
2.81
30
0
11
1.39
21
2.99
31
0
0
LINE
8
COLUMN
10
1.39
20
2.99
30
0
11
1.21
21
2.99
31
0
0
LINE
8
COLUMN
10
1.21
20
2.99
30
0
11
1.21
21
2.81
31
0
0
LINE
8
COLUMN
10
1.21
20
-0.09
30
0
11
1.39
21
-0.09
31
0
0
LINE
8
COLUMN
10
1.39
20
-0.09
30
0
11
1.39
21
0.09
31
0
0
LINE
8
COLUMN
10
1.39
20
0.09
30
0
11
1.21
21
0.09
31
0
0
LINE
8
COLUMN
10
1.21
20
0.09
30
0
11
1.21
21
-0.09
31
0
0
LINE
8
COLUMN
10
1.21
20
-2.9899999999999998
30
0
11
1.39
21
-2.9899999999999998
31
0
0
LINE
8
COLUMN
10
1.39
20
-2.9899999999999998
30
0
11
1.39
21
-2.8099999999999996
31
0
0
LINE
8
COLUMN
10
1.39
20
-2.8099999999999996
30
0
11
1.21
21
-2.8099999999999996
31
0
0
LINE
8
COLUMN
10
1.21
20
-2.8099999999999996
30
0
11
1.21
21
-2.9899999999999998
31
0
0
LINE
8
COLUMN
10
3.81
20
2.81
30
0
11
3.99
21
2.81
31
0
0
LINE
8
COLUMN
10
3.99
20
2.81
30
0
11
3.99
21
2.99
31
0
0
LINE
8
COLUMN
10
3.99
20
2.99
30
0
11
3.81
21
2.99
31
0
0
LINE
8
COLUMN
10
3.81
20
2.99
30
0
11
3.81
21
2.81
31
0
0
LINE
8
COLUMN
10
3.81
20
-0.09
30
0
11
3.99
21
-0.09
31
0
0
LINE
8
COLUMN
10
3.99
20
-0.09
30
0
11
3.99
21
0.09
31
0
0
LINE
8
COLUMN
10
3.99
20
0.09
30
0
11
3.81
21
0.09
31
0
0
LINE
8
COLUMN
10
3.81
20
0.09
30
0
11
3.81
21
-0.09
31
0
0
LINE
8
COLUMN
10
3.81
20
-2.9899999999999998
30
0
11
3.99
21
-2.9899999999999998
31
0
0
LINE
8
COLUMN
10
3.99
20
-2.9899999999999998
30
0
11
3.99
21
-2.8099999999999996
31
0
0
LINE
8
COLUMN
10
3.99
20
-2.8099999999999996
30
0
11
3.81
21
-2.8099999999999996
31
0
0
LINE
8
COLUMN
10
3.81
20
-2.8099999999999996
30
0
11
3.81
21
-2.9899999999999998
31
0
0
LINE
8
STAIR
10
-0.75
20
-4.7
30
0
11
0.75
21
-4.7
31
0
0
LINE
8
STAIR
10
0.75
20
-4.7
30
0
11
0.75
21
-4.4
31
0
0
LINE
8
STAIR
10
0.75
20
-4.4
30
0
11
-0.75
21
-4.4
31
0
0
LINE
8
STAIR
10
-0.75
20
-4.4
30
0
11
-0.75
21
-4.7
31
0
0
LINE
8
STAIR
10
-0.75
20
-5.0
30
0
11
0.75
21
-5.0
31
0
0
LINE
8
STAIR
10
0.75
20
-5.0
30
0
11
0.75
21
-4.7
31
0
0
LINE
8
STAIR
10
0.75
20
-4.7
30
0
11
-0.75
21
-4.7
31
0
0
LINE
8
STAIR
10
-0.75
20
-4.7
30
0
11
-0.75
21
-5.0
31
0
0
LINE
8
STAIR
10
-0.75
20
-5.3
30
0
11
0.75
21
-5.3
31
0
0
LINE
8
STAIR
10
0.75
20
-5.3
30
0
11
0.75
21
-5.0
31
0
0
LINE
8
STAIR
10
0.75
20
-5.0
30
0
11
-0.75
21
-5.0
31
0
0
LINE
8
STAIR
10
-0.75
20
-5.0
30
0
11
-0.75
21
-5.3
31
0
0
LINE
8
STAIR
10
-0.75
20
-5.6
30
0
11
0.75
21
-5.6
31
0
0
LINE
8
STAIR
10
0.75
20
-5.6
30
0
11
0.75
21
-5.3
31
0
0
LINE
8
STAIR
10
0.75
20
-5.3
30
0
11
-0.75
21
-5.3
31
0
0
LINE
8
STAIR
10
-0.75
20
-5.3
30
0
11
-0.75
21
-5.6
31
0
0
LINE
8
STAIR
10
-0.75
20
-5.9
30
0
11
0.75
21
-5.9
31
0
0
LINE
8
STAIR
10
0.75
20
-5.9
30
0
11
0.75
21
-5.6000000000000005
31
0
0
LINE
8
STAIR
10
0.75
20
-5.6000000000000005
30
0
11
-0.75
21
-5.6000000000000005
31
0
0
LINE
8
STAIR
10
-0.75
20
-5.6000000000000005
30
0
11
-0.75
21
-5.9
31
0
0
LINE
8
DIMENSION
10
-4
20
4
30
0
11
4
21
4
31
0
0
LINE
8
DIMENSION
10
-4
20
3.6
30
0
11
0
21
3.6
31
0
0
LINE
8
DIMENSION
10
0
20
3.6
30
0
11
2.2
21
3.6
31
0
0
LINE
8
DIMENSION
10
2.2
20
3.6
30
0
11
4
21
3.6
31
0
0
TEXT
8
ANNOTATION
10
-4
20
4.2
30
0
40
.18
1
8.00 m
0
TEXT
8
ANNOTATION
10
-4
20
3.7
30
0
40
.18
1
4.00 m
0
TEXT
8
ANNOTATION
10
0
20
3.7
30
0
40
.18
1
2.20 m
0
TEXT
8
ANNOTATION
10
2.2
20
3.7
30
0
40
.18
1
1.80 m
0
TEXT
8
ANNOTATION
10
-3
20
1.8
30
0
40
.18
1
BEDROOM
0
TEXT
8
ANNOTATION
10
0.3
20
1.3
30
0
40
.18
1
BATH
0
TEXT
8
ANNOTATION
10
2.4
20
1.3
30
0
40
.18
1
UTILITY
0
TEXT
8
ANNOTATION
10
-1
20
-1.8
30
0
40
.18
1
LIVING / KITCHEN
0
TEXT
8
ANNOTATION
10
-4
20
-6.7
30
0
40
.18
1
UNITS: METRES - CONCEPT ONLY - NOT FOR CONSTRUCTION
0
ENDSEC
0
EOF
